<?xml version="1.0" encoding="UTF-8"?>
<svg width="29px" height="34px" viewBox="0 0 29 34" version="1.1" xmlns="http://www.w3.org/2000/svg" xmlns:xlink="http://www.w3.org/1999/xlink">
    <title>Group</title>
    <g id="Symbols" stroke="none" stroke-width="1" fill="none" fill-rule="evenodd">
        <g id="TOPBAR" fill="#FFFFFF" fill-rule="nonzero">
            <g id="Group">
                <path d="M14.4833333,10.2833333 C13.4083333,10.2833333 12.5366667,9.41333333 12.5366667,8.34 C12.5366667,7.26833333 13.4083333,6.39833333 14.4833333,6.39833333 C15.5583333,6.39833333 16.43,7.265 16.43,8.33833333 C16.43,9.41166667 15.5583333,10.28 14.4833333,10.28 L14.4833333,10.2833333 Z M18.7383333,8.32 C18.7383333,8.32 17.3183333,6.06333333 14.4933333,6.06333333 L14.4833333,6.06333333 C11.6583333,6.06333333 10.2383333,8.32 10.2383333,8.32 C10.2383333,8.32 12.205,10.5766667 14.485,10.5766667 L14.495,10.5766667 C16.775,10.5766667 18.74,8.32 18.74,8.32 L18.7383333,8.32 Z" id="Shape"></path>
                <path d="M14.055,7.20666667 C13.6883333,7.20666667 13.3933333,7.52333333 13.3933333,7.91333333 C13.3933333,8.30333333 13.69,8.61833333 14.055,8.61833333 C14.4216667,8.61833333 14.7166667,8.305 14.7166667,7.915 C14.7166667,7.525 14.4216667,7.20833333 14.055,7.20833333" id="Shape"></path>
                <path d="M1.01,15.6333333 C1.31,16.1033333 1.66,16.5333333 2.04333333,16.9283333 L2.04333333,17.1283333 C2.04333333,24.0783333 7.61333333,29.7116667 14.4883333,29.7116667 C21.3633333,29.7116667 26.9383333,24.0783333 26.9383333,17.1283333 C26.9383333,17.0616667 26.935,17 26.9333333,16.9366667 C27.3166667,16.5433333 27.6666667,16.1133333 27.97,15.6466667 C28.0616667,16.3416667 28.11,17.0533333 28.11,17.7766667 C28.11,28.4166667 14.4883333,32.67 14.4883333,32.67 C14.4883333,32.67 0.866666667,28.72 0.866666667,17.7766667 C0.866666667,17.05 0.916666667,16.335 1.01,15.635 L1.01,15.6333333 Z M11.3433333,11.94 C13.56,13.3833333 14.1266667,15.3766667 14.1266667,19.0116667 C14.1266667,27.27 10.9366667,28.3116667 10.9366667,28.3116667 C10.9366667,28.3116667 5.44666667,26.6566667 5.44666667,22.8283333 C5.44666667,20.6083333 8.61833333,19.9183333 8.61833333,19.9183333 C8.61833333,19.9183333 -5.79333333,15.8216667 4.17333333,5.34166667 C4.33,7.82 8.93333333,10.375 11.3433333,11.9416667 L11.3433333,11.94 Z M22.6266667,7.60166667 C20.4433333,5.695 17.6,4.54166667 14.4883333,4.54166667 C11.38,4.54166667 8.53833333,5.695 6.355,7.6 C6.04666667,7.31166667 5.77166667,7.02333333 5.53833333,6.73833333 C6.335,5.735 6.625,4.56666667 6.61166667,3.96166667 C7.27833333,4.50166667 8.59833333,4.54833333 10.045,4.07833333 L10.2616667,4.00333333 C11.7566667,3.47 13.355,2.38666667 14.485,0.72 C15.5983333,2.36166667 17.1683333,3.43666667 18.645,3.98 C18.7816667,4.02333333 18.915,4.07 19.0483333,4.11833333 C20.4483333,4.54833333 21.715,4.48833333 22.3583333,3.96333333 C22.345,4.57166667 22.6366667,5.74666667 23.4366667,6.75 C23.21,7.03333333 22.9366667,7.31666667 22.6283333,7.6 L22.6266667,7.60166667 Z M14.4883333,14.3133333 C13.9933333,12.8133333 13.4083333,11.9766667 11.6216667,10.78 C9.42166667,9.31333333 9.12166667,8.32166667 9.12166667,8.32166667 C9.12166667,8.32166667 10.525,5.27833333 14.4833333,5.27833333 L14.495,5.27833333 C18.4516667,5.27833333 19.855,8.32166667 19.855,8.32166667 C19.855,8.32166667 19.555,9.31333333 17.355,10.7816667 C15.5683333,11.9766667 14.985,12.8116667 14.4883333,14.315 L14.4883333,14.3133333 Z M23.5383333,22.83 C23.5383333,26.6583333 18.0483333,28.3133333 18.0483333,28.3133333 C18.0483333,28.3133333 14.8583333,27.2716667 14.8583333,19.0133333 C14.8583333,15.38 15.425,13.385 17.6416667,11.9416667 C20.0533333,10.375 24.655,7.82 24.8133333,5.34166667 C34.78,15.8216667 20.3633333,19.92 20.3633333,19.92 C20.3633333,19.92 23.535,20.6116667 23.535,22.83 L23.5383333,22.83 Z M28.7683333,13.78 C29.4966667,11.0733333 28.3233333,8.08 25.285,4.885 C25.16,4.755 24.9883333,4.68166667 24.8083333,4.68166667 C24.7316667,4.68166667 24.6583333,4.695 24.5866667,4.72166667 C24.345,4.81166667 24.1766667,5.03833333 24.16,5.3 C24.1433333,5.58333333 24.04,5.89166667 23.855,6.21666667 C23.2583333,5.41166667 23,4.49166667 23.01,3.97666667 C23.0166667,3.72 22.8733333,3.48166667 22.6433333,3.36833333 C22.56,3.32666667 22.46,3.30166667 22.36,3.30166667 C22.21,3.30166667 22.06,3.355 21.9466667,3.44833333 C21.7233333,3.63166667 21.2966667,3.735 20.78,3.735 C20.305,3.735 19.78,3.65166667 19.2566667,3.49333333 C19.1233333,3.44333333 18.9933333,3.4 18.8616667,3.36 C17.965,3.02666667 16.2783333,2.19333333 15.025,0.348333333 C14.905,0.168333333 14.705,0.06 14.4883333,0.06 C14.2716667,0.06 14.0716667,0.168333333 13.95,0.348333333 C12.6666667,2.22166667 10.955,3.05 10.05,3.37666667 L9.85,3.44333333 C9.27166667,3.63333333 8.695,3.73166667 8.17666667,3.73166667 C7.655,3.73166667 7.24333333,3.62833333 7.01833333,3.445 C6.905,3.35166667 6.75833333,3.3 6.60666667,3.3 C6.50666667,3.3 6.40666667,3.325 6.32,3.36666667 C6.095,3.48333333 5.95333333,3.72 5.95666667,3.975 C5.96666667,4.48666667 5.71,5.4 5.12333333,6.2 L5.11666667,6.2 C4.93833333,5.88333333 4.83833333,5.57833333 4.82,5.3 C4.80333333,5.03833333 4.63666667,4.81 4.39166667,4.72 C4.32,4.69333333 4.245,4.68 4.16833333,4.68 C3.99166667,4.68 3.81833333,4.75333333 3.69833333,4.88333333 C0.656666667,8.08 -0.518333333,11.0716667 0.21,13.7766667 C0.326666667,14.2033333 0.493333333,14.6316667 0.71,15.0466667 L0.71,15.05 C0.518333333,15.15 0.386666667,15.3333333 0.36,15.5466667 C0.26,16.28 0.21,17.03 0.21,17.7766667 C0.21,22.48 2.66333333,26.6633333 7.305,29.8733333 C10.7583333,32.2616667 14.1616667,33.2633333 14.305,33.3066667 C14.365,33.3233333 14.4266667,33.33 14.4883333,33.33 C14.5516667,33.33 14.6166667,33.3216667 14.6783333,33.3016667 C14.82,33.2583333 18.2116667,32.185 21.67,29.7583333 C26.31,26.4966667 28.7633333,22.355 28.7633333,17.7783333 C28.7633333,17.04 28.7133333,16.295 28.6166667,15.5616667 C28.5883333,15.3483333 28.4583333,15.1616667 28.2666667,15.0616667 C28.4833333,14.6416667 28.655,14.2116667 28.7716667,13.7783333 L28.7683333,13.78 Z" id="Shape"></path>
            </g>
        </g>
    </g>
</svg>
